<mxfile host="app.diagrams.net" agent="Mozilla/5.0 (Windows NT 10.0; Win64; x64) AppleWebKit/537.36 (KHTML, like Gecko) Chrome/137.0.0.0 Safari/537.36 Edg/137.0.0.0" version="27.1.5" pages="2">
  <diagram name="Page-1" id="sqq8Rm_nSFfbKapOzGZ3">
    <mxGraphModel>
      <root>
        <mxCell id="0" />
        <mxCell id="1" parent="0" />
      </root>
    </mxGraphModel>
  </diagram>
  <diagram id="B1KBAhGJgHE19degpF0W" name="Page-2">
    <mxGraphModel dx="2182" dy="1209" grid="1" gridSize="10" guides="1" tooltips="1" connect="1" arrows="1" fold="1" page="1" pageScale="1" pageWidth="850" pageHeight="1100" math="0" shadow="0">
      <root>
        <mxCell id="0" />
        <mxCell id="1" parent="0" />
        <mxCell id="P6V-yY2AoFQRYzDOIvC6-4" value="Frontend UI &amp; Assets" style="whiteSpace=wrap;strokeWidth=2;align=left;verticalAlign=top;" vertex="1" parent="1">
          <mxGeometry x="477" y="20" width="712" height="172" as="geometry" />
        </mxCell>
        <mxCell id="P6V-yY2AoFQRYzDOIvC6-5" value="Monitoring &amp; Security" style="whiteSpace=wrap;strokeWidth=2;align=left;verticalAlign=top;" vertex="1" parent="1">
          <mxGeometry x="2933" y="424" width="554" height="538" as="geometry" />
        </mxCell>
        <mxCell id="P6V-yY2AoFQRYzDOIvC6-6" value="Data Storage &amp; Analytics" style="whiteSpace=wrap;strokeWidth=2;align=left;verticalAlign=top;" vertex="1" parent="1">
          <mxGeometry x="2933" y="1086" width="554" height="518" as="geometry" />
        </mxCell>
        <mxCell id="P6V-yY2AoFQRYzDOIvC6-7" value="Worker Pools" style="whiteSpace=wrap;strokeWidth=2;align=left;verticalAlign=top;" vertex="1" parent="1">
          <mxGeometry x="2613" y="766" width="270" height="825" as="geometry" />
        </mxCell>
        <mxCell id="P6V-yY2AoFQRYzDOIvC6-8" value="Messaging &amp; Event Bus" style="whiteSpace=wrap;strokeWidth=2;align=left;verticalAlign=top;" vertex="1" parent="1">
          <mxGeometry x="1794" y="890" width="691" height="717" as="geometry" />
        </mxCell>
        <mxCell id="P6V-yY2AoFQRYzDOIvC6-9" value="Workflow Engine" style="whiteSpace=wrap;strokeWidth=2;align=left;verticalAlign=top;" vertex="1" parent="1">
          <mxGeometry x="2613" y="90" width="874" height="314" as="geometry" />
        </mxCell>
        <mxCell id="P6V-yY2AoFQRYzDOIvC6-10" value="API &amp; Orchestration Tier" style="whiteSpace=wrap;strokeWidth=2;align=left;verticalAlign=top;" vertex="1" parent="1">
          <mxGeometry x="1517" y="96" width="968" height="774" as="geometry" />
        </mxCell>
        <mxCell id="P6V-yY2AoFQRYzDOIvC6-11" value="Edge / Ingress Layer" style="whiteSpace=wrap;strokeWidth=2;align=left;verticalAlign=top;" vertex="1" parent="1">
          <mxGeometry x="477" y="262" width="990" height="406" as="geometry" />
        </mxCell>
        <mxCell id="P6V-yY2AoFQRYzDOIvC6-12" value="Clients &amp; Channels" style="whiteSpace=wrap;strokeWidth=2;align=left;verticalAlign=top;" vertex="1" parent="1">
          <mxGeometry x="20" y="274" width="258" height="436" as="geometry" />
        </mxCell>
        <mxCell id="P6V-yY2AoFQRYzDOIvC6-13" value="Websites &amp; SDKs" style="whiteSpace=wrap;strokeWidth=2;" vertex="1" parent="1">
          <mxGeometry x="60" y="517" width="177" height="54" as="geometry" />
        </mxCell>
        <mxCell id="P6V-yY2AoFQRYzDOIvC6-14" value="Mobile Apps" style="whiteSpace=wrap;strokeWidth=2;" vertex="1" parent="1">
          <mxGeometry x="77" y="621" width="145" height="54" as="geometry" />
        </mxCell>
        <mxCell id="P6V-yY2AoFQRYzDOIvC6-15" value="CRM / 3rd‑Party APIs" style="whiteSpace=wrap;strokeWidth=2;" vertex="1" parent="1">
          <mxGeometry x="45" y="309" width="208" height="54" as="geometry" />
        </mxCell>
        <mxCell id="P6V-yY2AoFQRYzDOIvC6-16" value="ETL / Batch Jobs" style="whiteSpace=wrap;strokeWidth=2;" vertex="1" parent="1">
          <mxGeometry x="59" y="413" width="180" height="54" as="geometry" />
        </mxCell>
        <mxCell id="P6V-yY2AoFQRYzDOIvC6-17" value="Traefik / Nginx Ingress" style="whiteSpace=wrap;strokeWidth=2;" vertex="1" parent="1">
          <mxGeometry x="522" y="517" width="221" height="54" as="geometry" />
        </mxCell>
        <mxCell id="P6V-yY2AoFQRYzDOIvC6-18" value="API Gateway Auth, Rate‑Limit" style="whiteSpace=wrap;strokeWidth=2;" vertex="1" parent="1">
          <mxGeometry x="905" y="297" width="260" height="78" as="geometry" />
        </mxCell>
        <mxCell id="P6V-yY2AoFQRYzDOIvC6-19" value="Auth Service / OIDC" style="whiteSpace=wrap;strokeWidth=2;" vertex="1" parent="1">
          <mxGeometry x="1240" y="309" width="202" height="54" as="geometry" />
        </mxCell>
        <mxCell id="P6V-yY2AoFQRYzDOIvC6-20" value="Tracardi API FastAPI" style="whiteSpace=wrap;strokeWidth=2;" vertex="1" parent="1">
          <mxGeometry x="1542" y="309" width="202" height="54" as="geometry" />
        </mxCell>
        <mxCell id="P6V-yY2AoFQRYzDOIvC6-21" value="GraphQL Gateway" style="whiteSpace=wrap;strokeWidth=2;" vertex="1" parent="1">
          <mxGeometry x="1829" y="289" width="189" height="54" as="geometry" />
        </mxCell>
        <mxCell id="P6V-yY2AoFQRYzDOIvC6-22" value="Schema Validator" style="whiteSpace=wrap;strokeWidth=2;" vertex="1" parent="1">
          <mxGeometry x="1831" y="185" width="184" height="54" as="geometry" />
        </mxCell>
        <mxCell id="P6V-yY2AoFQRYzDOIvC6-23" value="Event Router" style="whiteSpace=wrap;strokeWidth=2;" vertex="1" parent="1">
          <mxGeometry x="1847" y="677" width="152" height="54" as="geometry" />
        </mxCell>
        <mxCell id="P6V-yY2AoFQRYzDOIvC6-24" value="Workflow Dispatcher" style="whiteSpace=wrap;strokeWidth=2;" vertex="1" parent="1">
          <mxGeometry x="1819" y="781" width="208" height="54" as="geometry" />
        </mxCell>
        <mxCell id="P6V-yY2AoFQRYzDOIvC6-25" value="PostgreSQL&#xa;Config &amp; Metadata" style="shape=cylinder3;boundedLbl=1;backgroundOutline=1;size=10;strokeWidth=2;whiteSpace=wrap;" vertex="1" parent="1">
          <mxGeometry x="2260" y="170" width="148" height="104" as="geometry" />
        </mxCell>
        <mxCell id="P6V-yY2AoFQRYzDOIvC6-26" value="HashiCorp Vault&#xa;Secrets" style="shape=cylinder3;boundedLbl=1;backgroundOutline=1;size=10;strokeWidth=2;whiteSpace=wrap;" vertex="1" parent="1">
          <mxGeometry x="1859" y="425" width="128" height="101" as="geometry" />
        </mxCell>
        <mxCell id="P6V-yY2AoFQRYzDOIvC6-27" value="Rule Engine" style="whiteSpace=wrap;strokeWidth=2;" vertex="1" parent="1">
          <mxGeometry x="3012" y="125" width="143" height="54" as="geometry" />
        </mxCell>
        <mxCell id="P6V-yY2AoFQRYzDOIvC6-28" value="Flow Manager" style="whiteSpace=wrap;strokeWidth=2;" vertex="1" parent="1">
          <mxGeometry x="3282" y="125" width="158" height="54" as="geometry" />
        </mxCell>
        <mxCell id="P6V-yY2AoFQRYzDOIvC6-29" value="Plugin Registry" style="whiteSpace=wrap;strokeWidth=2;" vertex="1" parent="1">
          <mxGeometry x="3278" y="315" width="165" height="54" as="geometry" />
        </mxCell>
        <mxCell id="P6V-yY2AoFQRYzDOIvC6-30" value="Execution Context&#xa;– Docker / Python Sandbox" style="whiteSpace=wrap;strokeWidth=2;" vertex="1" parent="1">
          <mxGeometry x="2958" y="229" width="251" height="78" as="geometry" />
        </mxCell>
        <mxCell id="P6V-yY2AoFQRYzDOIvC6-31" value="Plugin Runner" style="whiteSpace=wrap;strokeWidth=2;" vertex="1" parent="1">
          <mxGeometry x="2669" y="278" width="159" height="54" as="geometry" />
        </mxCell>
        <mxCell id="P6V-yY2AoFQRYzDOIvC6-32" value="Zookeeper" style="shape=cylinder3;boundedLbl=1;backgroundOutline=1;size=10;strokeWidth=2;whiteSpace=wrap;" vertex="1" parent="1">
          <mxGeometry x="1878" y="1187" width="90" height="70" as="geometry" />
        </mxCell>
        <mxCell id="P6V-yY2AoFQRYzDOIvC6-33" value="Apache Pulsar" style="shape=cylinder3;boundedLbl=1;backgroundOutline=1;size=10;strokeWidth=2;whiteSpace=wrap;" vertex="1" parent="1">
          <mxGeometry x="2276" y="1185" width="115" height="75" as="geometry" />
        </mxCell>
        <mxCell id="P6V-yY2AoFQRYzDOIvC6-34" value="Topics:&#xa;events, workflows, merges" style="whiteSpace=wrap;strokeWidth=2;" vertex="1" parent="1">
          <mxGeometry x="2208" y="1494" width="252" height="78" as="geometry" />
        </mxCell>
        <mxCell id="P6V-yY2AoFQRYzDOIvC6-35" value="Flusher Workers" style="whiteSpace=wrap;strokeWidth=2;" vertex="1" parent="1">
          <mxGeometry x="2661" y="923" width="174" height="54" as="geometry" />
        </mxCell>
        <mxCell id="P6V-yY2AoFQRYzDOIvC6-36" value="Storage Workers" style="whiteSpace=wrap;strokeWidth=2;" vertex="1" parent="1">
          <mxGeometry x="2660" y="1143" width="176" height="54" as="geometry" />
        </mxCell>
        <mxCell id="P6V-yY2AoFQRYzDOIvC6-37" value="Merge Workers" style="whiteSpace=wrap;strokeWidth=2;" vertex="1" parent="1">
          <mxGeometry x="2666" y="1247" width="165" height="54" as="geometry" />
        </mxCell>
        <mxCell id="P6V-yY2AoFQRYzDOIvC6-38" value="Segmentation Workers" style="whiteSpace=wrap;strokeWidth=2;" vertex="1" parent="1">
          <mxGeometry x="2638" y="1351" width="220" height="54" as="geometry" />
        </mxCell>
        <mxCell id="P6V-yY2AoFQRYzDOIvC6-39" value="Analytics Workers" style="whiteSpace=wrap;strokeWidth=2;" vertex="1" parent="1">
          <mxGeometry x="2655" y="1502" width="187" height="54" as="geometry" />
        </mxCell>
        <mxCell id="P6V-yY2AoFQRYzDOIvC6-40" value="Elasticsearch&#xa;Event &amp;amp; Profile Index" style="shape=cylinder3;boundedLbl=1;backgroundOutline=1;size=10;strokeWidth=2;whiteSpace=wrap;" vertex="1" parent="1">
          <mxGeometry x="3001" y="1127" width="167" height="106" as="geometry" />
        </mxCell>
        <mxCell id="P6V-yY2AoFQRYzDOIvC6-41" value="Redis Cache&#xa;Profile/Session" style="shape=cylinder3;boundedLbl=1;backgroundOutline=1;size=10;strokeWidth=2;whiteSpace=wrap;" vertex="1" parent="1">
          <mxGeometry x="3023" y="1338" width="122" height="100" as="geometry" />
        </mxCell>
        <mxCell id="P6V-yY2AoFQRYzDOIvC6-42" value="MinIO Object Store" style="shape=cylinder3;boundedLbl=1;backgroundOutline=1;size=10;strokeWidth=2;whiteSpace=wrap;" vertex="1" parent="1">
          <mxGeometry x="3286" y="1128" width="151" height="80" as="geometry" />
        </mxCell>
        <mxCell id="P6V-yY2AoFQRYzDOIvC6-43" value="ClickHouse Analytics" style="shape=cylinder3;boundedLbl=1;backgroundOutline=1;size=10;strokeWidth=2;whiteSpace=wrap;" vertex="1" parent="1">
          <mxGeometry x="3003" y="1488" width="161" height="81" as="geometry" />
        </mxCell>
        <mxCell id="P6V-yY2AoFQRYzDOIvC6-44" value="S3/Backup Store" style="shape=cylinder3;boundedLbl=1;backgroundOutline=1;size=10;strokeWidth=2;whiteSpace=wrap;" vertex="1" parent="1">
          <mxGeometry x="3295" y="1480" width="133" height="78" as="geometry" />
        </mxCell>
        <mxCell id="P6V-yY2AoFQRYzDOIvC6-45" value="Prometheus&#xa;Metrics" style="whiteSpace=wrap;strokeWidth=2;" vertex="1" parent="1">
          <mxGeometry x="3012" y="492" width="144" height="78" as="geometry" />
        </mxCell>
        <mxCell id="P6V-yY2AoFQRYzDOIvC6-46" value="Grafana Dashboards" style="whiteSpace=wrap;strokeWidth=2;" vertex="1" parent="1">
          <mxGeometry x="3260" y="504" width="203" height="54" as="geometry" />
        </mxCell>
        <mxCell id="P6V-yY2AoFQRYzDOIvC6-47" value="Loki / EFK Logs" style="whiteSpace=wrap;strokeWidth=2;" vertex="1" parent="1">
          <mxGeometry x="2999" y="640" width="170" height="54" as="geometry" />
        </mxCell>
        <mxCell id="P6V-yY2AoFQRYzDOIvC6-48" value="Jaeger Tracing" style="whiteSpace=wrap;strokeWidth=2;" vertex="1" parent="1">
          <mxGeometry x="3002" y="752" width="164" height="54" as="geometry" />
        </mxCell>
        <mxCell id="P6V-yY2AoFQRYzDOIvC6-49" value="Kubernetes RBAC" style="whiteSpace=wrap;strokeWidth=2;" vertex="1" parent="1">
          <mxGeometry x="3270" y="815" width="183" height="54" as="geometry" />
        </mxCell>
        <mxCell id="P6V-yY2AoFQRYzDOIvC6-50" value="CDN / Nginx" style="whiteSpace=wrap;strokeWidth=2;" vertex="1" parent="1">
          <mxGeometry x="961" y="79" width="147" height="54" as="geometry" />
        </mxCell>
        <mxCell id="P6V-yY2AoFQRYzDOIvC6-51" value="React SPA&#xa;Workflow Editor &amp;amp; Dashboards" style="whiteSpace=wrap;strokeWidth=2;" vertex="1" parent="1">
          <mxGeometry x="502" y="55" width="260" height="102" as="geometry" />
        </mxCell>
        <mxCell id="P6V-yY2AoFQRYzDOIvC6-52" value="kube-apiserver" style="whiteSpace=wrap;strokeWidth=2;" vertex="1" parent="1">
          <mxGeometry x="3001" y="997" width="166" height="54" as="geometry" />
        </mxCell>
        <mxCell id="P6V-yY2AoFQRYzDOIvC6-53" value="HTTPS track/collect" style="curved=1;startArrow=none;endArrow=block;exitX=1;exitY=0.5;entryX=0;entryY=0.5;rounded=0;" edge="1" parent="1" source="P6V-yY2AoFQRYzDOIvC6-13" target="P6V-yY2AoFQRYzDOIvC6-17">
          <mxGeometry relative="1" as="geometry">
            <Array as="points" />
          </mxGeometry>
        </mxCell>
        <mxCell id="P6V-yY2AoFQRYzDOIvC6-54" value="HTTPS" style="curved=1;startArrow=none;endArrow=block;exitX=0.99;exitY=0.5;entryX=0.32;entryY=1;rounded=0;" edge="1" parent="1" source="P6V-yY2AoFQRYzDOIvC6-14" target="P6V-yY2AoFQRYzDOIvC6-17">
          <mxGeometry relative="1" as="geometry">
            <Array as="points">
              <mxPoint x="477" y="648" />
            </Array>
          </mxGeometry>
        </mxCell>
        <mxCell id="P6V-yY2AoFQRYzDOIvC6-55" value="REST / GraphQL" style="curved=1;startArrow=none;endArrow=block;exitX=1;exitY=0.5;entryX=0;entryY=0.5;rounded=0;" edge="1" parent="1" source="P6V-yY2AoFQRYzDOIvC6-15" target="P6V-yY2AoFQRYzDOIvC6-18">
          <mxGeometry relative="1" as="geometry">
            <Array as="points" />
          </mxGeometry>
        </mxCell>
        <mxCell id="P6V-yY2AoFQRYzDOIvC6-56" value="Batch API" style="curved=1;startArrow=none;endArrow=block;exitX=1;exitY=0.5;entryX=0.21;entryY=1;rounded=0;" edge="1" parent="1" source="P6V-yY2AoFQRYzDOIvC6-16" target="P6V-yY2AoFQRYzDOIvC6-18">
          <mxGeometry relative="1" as="geometry">
            <Array as="points">
              <mxPoint x="834" y="440" />
            </Array>
          </mxGeometry>
        </mxCell>
        <mxCell id="P6V-yY2AoFQRYzDOIvC6-57" value="" style="curved=1;startArrow=none;endArrow=block;exitX=1;exitY=0.5;entryX=0.35;entryY=1;rounded=0;" edge="1" parent="1" source="P6V-yY2AoFQRYzDOIvC6-17" target="P6V-yY2AoFQRYzDOIvC6-18">
          <mxGeometry relative="1" as="geometry">
            <Array as="points">
              <mxPoint x="834" y="544" />
            </Array>
          </mxGeometry>
        </mxCell>
        <mxCell id="P6V-yY2AoFQRYzDOIvC6-58" value="" style="curved=1;startArrow=none;endArrow=block;exitX=1;exitY=0.5;entryX=0;entryY=0.5;rounded=0;" edge="1" parent="1" source="P6V-yY2AoFQRYzDOIvC6-18" target="P6V-yY2AoFQRYzDOIvC6-19">
          <mxGeometry relative="1" as="geometry">
            <Array as="points" />
          </mxGeometry>
        </mxCell>
        <mxCell id="P6V-yY2AoFQRYzDOIvC6-59" value="" style="curved=1;startArrow=none;endArrow=block;exitX=1;exitY=0.5;entryX=0;entryY=0.5;rounded=0;" edge="1" parent="1" source="P6V-yY2AoFQRYzDOIvC6-19" target="P6V-yY2AoFQRYzDOIvC6-20">
          <mxGeometry relative="1" as="geometry">
            <Array as="points" />
          </mxGeometry>
        </mxCell>
        <mxCell id="P6V-yY2AoFQRYzDOIvC6-60" value="" style="curved=1;startArrow=none;endArrow=block;exitX=0.57;exitY=1;entryX=0.45;entryY=1;rounded=0;" edge="1" parent="1" source="P6V-yY2AoFQRYzDOIvC6-18" target="P6V-yY2AoFQRYzDOIvC6-20">
          <mxGeometry relative="1" as="geometry">
            <Array as="points">
              <mxPoint x="1190" y="641" />
              <mxPoint x="1517" y="641" />
            </Array>
          </mxGeometry>
        </mxCell>
        <mxCell id="P6V-yY2AoFQRYzDOIvC6-61" value="" style="curved=1;startArrow=none;endArrow=block;exitX=1;exitY=0.2;entryX=0;entryY=0.49;rounded=0;" edge="1" parent="1" source="P6V-yY2AoFQRYzDOIvC6-20" target="P6V-yY2AoFQRYzDOIvC6-21">
          <mxGeometry relative="1" as="geometry">
            <Array as="points">
              <mxPoint x="1769" y="316" />
            </Array>
          </mxGeometry>
        </mxCell>
        <mxCell id="P6V-yY2AoFQRYzDOIvC6-62" value="" style="curved=1;startArrow=none;endArrow=block;exitX=0.64;exitY=0;entryX=0;entryY=0.49;rounded=0;" edge="1" parent="1" source="P6V-yY2AoFQRYzDOIvC6-20" target="P6V-yY2AoFQRYzDOIvC6-22">
          <mxGeometry relative="1" as="geometry">
            <Array as="points">
              <mxPoint x="1769" y="212" />
            </Array>
          </mxGeometry>
        </mxCell>
        <mxCell id="P6V-yY2AoFQRYzDOIvC6-63" value="" style="curved=1;startArrow=none;endArrow=block;exitX=0.55;exitY=1;entryX=0;entryY=0.5;rounded=0;" edge="1" parent="1" source="P6V-yY2AoFQRYzDOIvC6-20" target="P6V-yY2AoFQRYzDOIvC6-23">
          <mxGeometry relative="1" as="geometry">
            <Array as="points">
              <mxPoint x="1769" y="704" />
            </Array>
          </mxGeometry>
        </mxCell>
        <mxCell id="P6V-yY2AoFQRYzDOIvC6-64" value="" style="curved=1;startArrow=none;endArrow=block;exitX=0.59;exitY=0;entryX=0;entryY=0.26;rounded=0;" edge="1" parent="1" source="P6V-yY2AoFQRYzDOIvC6-20" target="P6V-yY2AoFQRYzDOIvC6-25">
          <mxGeometry relative="1" as="geometry">
            <Array as="points">
              <mxPoint x="1769" y="150" />
              <mxPoint x="2118" y="150" />
            </Array>
          </mxGeometry>
        </mxCell>
        <mxCell id="P6V-yY2AoFQRYzDOIvC6-65" value="" style="curved=1;startArrow=none;endArrow=block;exitX=0.62;exitY=1;entryX=0;entryY=0.5;rounded=0;" edge="1" parent="1" source="P6V-yY2AoFQRYzDOIvC6-20" target="P6V-yY2AoFQRYzDOIvC6-26">
          <mxGeometry relative="1" as="geometry">
            <Array as="points">
              <mxPoint x="1769" y="475" />
            </Array>
          </mxGeometry>
        </mxCell>
        <mxCell id="P6V-yY2AoFQRYzDOIvC6-66" value="publish" style="curved=1;startArrow=none;endArrow=block;exitX=1;exitY=0.5;entryX=0.37;entryY=0;rounded=0;" edge="1" parent="1" source="P6V-yY2AoFQRYzDOIvC6-23" target="P6V-yY2AoFQRYzDOIvC6-33">
          <mxGeometry relative="1" as="geometry">
            <Array as="points">
              <mxPoint x="2118" y="704" />
            </Array>
          </mxGeometry>
        </mxCell>
        <mxCell id="P6V-yY2AoFQRYzDOIvC6-67" value="read/write config" style="curved=1;startArrow=none;endArrow=block;exitX=1;exitY=0.49;entryX=0;entryY=0.81;rounded=0;" edge="1" parent="1" source="P6V-yY2AoFQRYzDOIvC6-21" target="P6V-yY2AoFQRYzDOIvC6-25">
          <mxGeometry relative="1" as="geometry">
            <Array as="points">
              <mxPoint x="2118" y="316" />
            </Array>
          </mxGeometry>
        </mxCell>
        <mxCell id="P6V-yY2AoFQRYzDOIvC6-68" value="" style="curved=1;startArrow=none;endArrow=block;exitX=1;exitY=0.5;entryX=0.34;entryY=0;rounded=0;" edge="1" parent="1" source="P6V-yY2AoFQRYzDOIvC6-24" target="P6V-yY2AoFQRYzDOIvC6-33">
          <mxGeometry relative="1" as="geometry">
            <Array as="points">
              <mxPoint x="2118" y="808" />
            </Array>
          </mxGeometry>
        </mxCell>
        <mxCell id="P6V-yY2AoFQRYzDOIvC6-69" value="" style="curved=1;startArrow=none;endArrow=block;exitX=1;exitY=0.51;entryX=0;entryY=0.5;rounded=0;" edge="1" parent="1" source="P6V-yY2AoFQRYzDOIvC6-32" target="P6V-yY2AoFQRYzDOIvC6-33">
          <mxGeometry relative="1" as="geometry">
            <Array as="points" />
          </mxGeometry>
        </mxCell>
        <mxCell id="P6V-yY2AoFQRYzDOIvC6-70" value="events" style="curved=1;startArrow=none;endArrow=block;exitX=0.69;exitY=0;entryX=0;entryY=0.5;rounded=0;" edge="1" parent="1" source="P6V-yY2AoFQRYzDOIvC6-33" target="P6V-yY2AoFQRYzDOIvC6-35">
          <mxGeometry relative="1" as="geometry">
            <Array as="points">
              <mxPoint x="2485" y="950" />
            </Array>
          </mxGeometry>
        </mxCell>
        <mxCell id="P6V-yY2AoFQRYzDOIvC6-71" value="events" style="curved=1;startArrow=none;endArrow=block;exitX=1.01;exitY=0.23;entryX=0;entryY=0.51;rounded=0;" edge="1" parent="1" source="P6V-yY2AoFQRYzDOIvC6-33" target="P6V-yY2AoFQRYzDOIvC6-36">
          <mxGeometry relative="1" as="geometry">
            <Array as="points">
              <mxPoint x="2485" y="1170" />
            </Array>
          </mxGeometry>
        </mxCell>
        <mxCell id="P6V-yY2AoFQRYzDOIvC6-72" value="events" style="curved=1;startArrow=none;endArrow=block;exitX=1.01;exitY=0.76;entryX=0;entryY=0.51;rounded=0;" edge="1" parent="1" source="P6V-yY2AoFQRYzDOIvC6-33" target="P6V-yY2AoFQRYzDOIvC6-37">
          <mxGeometry relative="1" as="geometry">
            <Array as="points">
              <mxPoint x="2485" y="1274" />
            </Array>
          </mxGeometry>
        </mxCell>
        <mxCell id="P6V-yY2AoFQRYzDOIvC6-73" value="events" style="curved=1;startArrow=none;endArrow=block;exitX=0.82;exitY=1;entryX=0;entryY=0.51;rounded=0;" edge="1" parent="1" source="P6V-yY2AoFQRYzDOIvC6-33" target="P6V-yY2AoFQRYzDOIvC6-38">
          <mxGeometry relative="1" as="geometry">
            <Array as="points">
              <mxPoint x="2485" y="1378" />
            </Array>
          </mxGeometry>
        </mxCell>
        <mxCell id="P6V-yY2AoFQRYzDOIvC6-74" value="events" style="curved=1;startArrow=none;endArrow=block;exitX=0.67;exitY=1;entryX=0;entryY=0.5;rounded=0;" edge="1" parent="1" source="P6V-yY2AoFQRYzDOIvC6-33" target="P6V-yY2AoFQRYzDOIvC6-39">
          <mxGeometry relative="1" as="geometry">
            <Array as="points">
              <mxPoint x="2485" y="1529" />
            </Array>
          </mxGeometry>
        </mxCell>
        <mxCell id="P6V-yY2AoFQRYzDOIvC6-75" value="workflows" style="curved=1;startArrow=none;endArrow=block;exitX=0.67;exitY=0;entryX=0;entryY=0.5;rounded=0;" edge="1" parent="1" source="P6V-yY2AoFQRYzDOIvC6-33" target="P6V-yY2AoFQRYzDOIvC6-31">
          <mxGeometry relative="1" as="geometry">
            <Array as="points">
              <mxPoint x="2485" y="930" />
              <mxPoint x="2549" y="305" />
            </Array>
          </mxGeometry>
        </mxCell>
        <mxCell id="P6V-yY2AoFQRYzDOIvC6-76" value="" style="curved=1;startArrow=none;endArrow=block;exitX=0.61;exitY=1;entryX=0;entryY=0.35;rounded=0;" edge="1" parent="1" source="P6V-yY2AoFQRYzDOIvC6-35" target="P6V-yY2AoFQRYzDOIvC6-40">
          <mxGeometry relative="1" as="geometry">
            <Array as="points">
              <mxPoint x="2883" y="1150" />
              <mxPoint x="2933" y="1150" />
            </Array>
          </mxGeometry>
        </mxCell>
        <mxCell id="P6V-yY2AoFQRYzDOIvC6-77" value="" style="curved=1;startArrow=none;endArrow=block;exitX=1;exitY=0.51;entryX=0;entryY=0.45;rounded=0;" edge="1" parent="1" source="P6V-yY2AoFQRYzDOIvC6-36" target="P6V-yY2AoFQRYzDOIvC6-40">
          <mxGeometry relative="1" as="geometry">
            <Array as="points">
              <mxPoint x="2933" y="1170" />
            </Array>
          </mxGeometry>
        </mxCell>
        <mxCell id="P6V-yY2AoFQRYzDOIvC6-78" value="" style="curved=1;startArrow=none;endArrow=block;exitX=1;exitY=0.03;entryX=0;entryY=0.77;rounded=0;" edge="1" parent="1" source="P6V-yY2AoFQRYzDOIvC6-37" target="P6V-yY2AoFQRYzDOIvC6-40">
          <mxGeometry relative="1" as="geometry">
            <Array as="points">
              <mxPoint x="2883" y="1232" />
              <mxPoint x="2933" y="1232" />
            </Array>
          </mxGeometry>
        </mxCell>
        <mxCell id="P6V-yY2AoFQRYzDOIvC6-79" value="" style="curved=1;startArrow=none;endArrow=block;exitX=0.85;exitY=1.01;entryX=0;entryY=0.29;rounded=0;" edge="1" parent="1" source="P6V-yY2AoFQRYzDOIvC6-37" target="P6V-yY2AoFQRYzDOIvC6-41">
          <mxGeometry relative="1" as="geometry">
            <Array as="points">
              <mxPoint x="2883" y="1336" />
              <mxPoint x="2933" y="1336" />
            </Array>
          </mxGeometry>
        </mxCell>
        <mxCell id="P6V-yY2AoFQRYzDOIvC6-80" value="" style="curved=1;startArrow=none;endArrow=block;exitX=0.7;exitY=0.01;entryX=0.08;entryY=1;rounded=0;" edge="1" parent="1" source="P6V-yY2AoFQRYzDOIvC6-38" target="P6V-yY2AoFQRYzDOIvC6-40">
          <mxGeometry relative="1" as="geometry">
            <Array as="points">
              <mxPoint x="2883" y="1294" />
              <mxPoint x="2933" y="1294" />
            </Array>
          </mxGeometry>
        </mxCell>
        <mxCell id="P6V-yY2AoFQRYzDOIvC6-81" value="" style="curved=1;startArrow=none;endArrow=block;exitX=0.74;exitY=1.01;entryX=0;entryY=0.75;rounded=0;" edge="1" parent="1" source="P6V-yY2AoFQRYzDOIvC6-38" target="P6V-yY2AoFQRYzDOIvC6-41">
          <mxGeometry relative="1" as="geometry">
            <Array as="points">
              <mxPoint x="2883" y="1449" />
              <mxPoint x="2933" y="1449" />
            </Array>
          </mxGeometry>
        </mxCell>
        <mxCell id="P6V-yY2AoFQRYzDOIvC6-82" value="" style="curved=1;startArrow=none;endArrow=block;exitX=1;exitY=0.5;entryX=0;entryY=0.51;rounded=0;" edge="1" parent="1" source="P6V-yY2AoFQRYzDOIvC6-39" target="P6V-yY2AoFQRYzDOIvC6-43">
          <mxGeometry relative="1" as="geometry">
            <Array as="points" />
          </mxGeometry>
        </mxCell>
        <mxCell id="P6V-yY2AoFQRYzDOIvC6-83" value="" style="curved=1;startArrow=none;endArrow=block;exitX=1;exitY=0.1;entryX=0;entryY=0.5;rounded=0;" edge="1" parent="1" source="P6V-yY2AoFQRYzDOIvC6-31" target="P6V-yY2AoFQRYzDOIvC6-30">
          <mxGeometry relative="1" as="geometry">
            <Array as="points">
              <mxPoint x="2883" y="268" />
            </Array>
          </mxGeometry>
        </mxCell>
        <mxCell id="P6V-yY2AoFQRYzDOIvC6-84" value="" style="curved=1;startArrow=none;endArrow=block;exitX=1;exitY=0.5;entryX=0.22;entryY=0;rounded=0;" edge="1" parent="1" source="P6V-yY2AoFQRYzDOIvC6-30" target="P6V-yY2AoFQRYzDOIvC6-29">
          <mxGeometry relative="1" as="geometry">
            <Array as="points">
              <mxPoint x="3235" y="268" />
            </Array>
          </mxGeometry>
        </mxCell>
        <mxCell id="P6V-yY2AoFQRYzDOIvC6-85" value="" style="curved=1;startArrow=none;endArrow=block;exitX=0;exitY=0.5;entryX=1;entryY=0.9;rounded=0;" edge="1" parent="1" source="P6V-yY2AoFQRYzDOIvC6-29" target="P6V-yY2AoFQRYzDOIvC6-31">
          <mxGeometry relative="1" as="geometry">
            <Array as="points">
              <mxPoint x="2883" y="342" />
            </Array>
          </mxGeometry>
        </mxCell>
        <mxCell id="P6V-yY2AoFQRYzDOIvC6-86" value="" style="curved=1;startArrow=none;endArrow=block;exitX=0.65;exitY=0;entryX=0;entryY=0.5;rounded=0;" edge="1" parent="1" source="P6V-yY2AoFQRYzDOIvC6-31" target="P6V-yY2AoFQRYzDOIvC6-27">
          <mxGeometry relative="1" as="geometry">
            <Array as="points">
              <mxPoint x="2883" y="152" />
            </Array>
          </mxGeometry>
        </mxCell>
        <mxCell id="P6V-yY2AoFQRYzDOIvC6-87" value="" style="curved=1;startArrow=none;endArrow=block;exitX=1;exitY=0.5;entryX=0;entryY=0.5;rounded=0;" edge="1" parent="1" source="P6V-yY2AoFQRYzDOIvC6-27" target="P6V-yY2AoFQRYzDOIvC6-28">
          <mxGeometry relative="1" as="geometry">
            <Array as="points" />
          </mxGeometry>
        </mxCell>
        <mxCell id="P6V-yY2AoFQRYzDOIvC6-88" value="API calls" style="curved=1;startArrow=none;endArrow=block;exitX=1;exitY=0.85;entryX=0.33;entryY=0;rounded=0;" edge="1" parent="1" source="P6V-yY2AoFQRYzDOIvC6-51" target="P6V-yY2AoFQRYzDOIvC6-18">
          <mxGeometry relative="1" as="geometry">
            <Array as="points">
              <mxPoint x="834" y="161" />
            </Array>
          </mxGeometry>
        </mxCell>
        <mxCell id="P6V-yY2AoFQRYzDOIvC6-89" value="static assets" style="curved=1;startArrow=none;endArrow=block;exitX=1;exitY=0.5;entryX=0;entryY=0.5;rounded=0;" edge="1" parent="1" source="P6V-yY2AoFQRYzDOIvC6-51" target="P6V-yY2AoFQRYzDOIvC6-50">
          <mxGeometry relative="1" as="geometry">
            <Array as="points" />
          </mxGeometry>
        </mxCell>
        <mxCell id="P6V-yY2AoFQRYzDOIvC6-90" value="" style="curved=1;startArrow=none;endArrow=block;exitX=0.81;exitY=1;entryX=0;entryY=0.09;rounded=0;" edge="1" parent="1" source="P6V-yY2AoFQRYzDOIvC6-20" target="P6V-yY2AoFQRYzDOIvC6-45">
          <mxGeometry relative="1" as="geometry">
            <Array as="points">
              <mxPoint x="1769" y="390" />
              <mxPoint x="2485" y="390" />
              <mxPoint x="2549" y="464" />
              <mxPoint x="2933" y="464" />
            </Array>
          </mxGeometry>
        </mxCell>
        <mxCell id="P6V-yY2AoFQRYzDOIvC6-91" value="" style="curved=1;startArrow=none;endArrow=block;exitX=1;exitY=0.5;entryX=0;entryY=0.5;rounded=0;" edge="1" parent="1" source="P6V-yY2AoFQRYzDOIvC6-45" target="P6V-yY2AoFQRYzDOIvC6-46">
          <mxGeometry relative="1" as="geometry">
            <Array as="points" />
          </mxGeometry>
        </mxCell>
        <mxCell id="P6V-yY2AoFQRYzDOIvC6-92" value="" style="curved=1;startArrow=none;endArrow=block;exitX=0.58;exitY=1;entryX=0.09;entryY=0.01;rounded=0;" edge="1" parent="1" source="P6V-yY2AoFQRYzDOIvC6-20" target="P6V-yY2AoFQRYzDOIvC6-47">
          <mxGeometry relative="1" as="geometry">
            <Array as="points">
              <mxPoint x="1769" y="561" />
              <mxPoint x="2883" y="561" />
              <mxPoint x="2908" y="609" />
              <mxPoint x="2933" y="609" />
            </Array>
          </mxGeometry>
        </mxCell>
        <mxCell id="P6V-yY2AoFQRYzDOIvC6-93" value="" style="curved=1;startArrow=none;endArrow=block;exitX=0.56;exitY=1;entryX=0.11;entryY=0.01;rounded=0;" edge="1" parent="1" source="P6V-yY2AoFQRYzDOIvC6-20" target="P6V-yY2AoFQRYzDOIvC6-48">
          <mxGeometry relative="1" as="geometry">
            <Array as="points">
              <mxPoint x="1769" y="633" />
              <mxPoint x="2883" y="633" />
              <mxPoint x="2908" y="715" />
              <mxPoint x="2933" y="715" />
            </Array>
          </mxGeometry>
        </mxCell>
        <mxCell id="P6V-yY2AoFQRYzDOIvC6-94" value="" style="curved=1;startArrow=none;endArrow=block;exitX=0.63;exitY=0.01;entryX=0;entryY=0.51;rounded=0;" edge="1" parent="1" source="P6V-yY2AoFQRYzDOIvC6-52" target="P6V-yY2AoFQRYzDOIvC6-49">
          <mxGeometry relative="1" as="geometry">
            <Array as="points">
              <mxPoint x="3235" y="842" />
            </Array>
          </mxGeometry>
        </mxCell>
        <mxCell id="P6V-yY2AoFQRYzDOIvC6-95" value="" style="curved=1;startArrow=none;endArrow=block;exitX=0.76;exitY=1;entryX=0.26;entryY=0;rounded=0;" edge="1" parent="1" source="P6V-yY2AoFQRYzDOIvC6-40" target="P6V-yY2AoFQRYzDOIvC6-44">
          <mxGeometry relative="1" as="geometry">
            <Array as="points">
              <mxPoint x="3235" y="1365" />
            </Array>
          </mxGeometry>
        </mxCell>
        <mxCell id="P6V-yY2AoFQRYzDOIvC6-96" value="" style="curved=1;startArrow=none;endArrow=block;exitX=1;exitY=0.51;entryX=0;entryY=0.57;rounded=0;" edge="1" parent="1" source="P6V-yY2AoFQRYzDOIvC6-43" target="P6V-yY2AoFQRYzDOIvC6-44">
          <mxGeometry relative="1" as="geometry">
            <Array as="points">
              <mxPoint x="3235" y="1529" />
            </Array>
          </mxGeometry>
        </mxCell>
        <mxCell id="P6V-yY2AoFQRYzDOIvC6-97" value="" style="curved=1;startArrow=none;endArrow=block;rounded=0;" edge="1" parent="1" source="P6V-yY2AoFQRYzDOIvC6-7" target="P6V-yY2AoFQRYzDOIvC6-45">
          <mxGeometry relative="1" as="geometry">
            <Array as="points" />
          </mxGeometry>
        </mxCell>
        <mxCell id="P6V-yY2AoFQRYzDOIvC6-98" value="" style="curved=1;startArrow=none;endArrow=block;rounded=0;" edge="1" parent="1" source="P6V-yY2AoFQRYzDOIvC6-7" target="P6V-yY2AoFQRYzDOIvC6-47">
          <mxGeometry relative="1" as="geometry">
            <Array as="points" />
          </mxGeometry>
        </mxCell>
        <mxCell id="P6V-yY2AoFQRYzDOIvC6-99" value="" style="curved=1;startArrow=none;endArrow=block;rounded=0;" edge="1" parent="1" source="P6V-yY2AoFQRYzDOIvC6-7" target="P6V-yY2AoFQRYzDOIvC6-48">
          <mxGeometry relative="1" as="geometry">
            <Array as="points" />
          </mxGeometry>
        </mxCell>
        <mxCell id="P6V-yY2AoFQRYzDOIvC6-100" value="" style="curved=1;startArrow=none;endArrow=block;rounded=0;" edge="1" parent="1" source="P6V-yY2AoFQRYzDOIvC6-6" target="P6V-yY2AoFQRYzDOIvC6-42">
          <mxGeometry relative="1" as="geometry">
            <Array as="points" />
          </mxGeometry>
        </mxCell>
      </root>
    </mxGraphModel>
  </diagram>
</mxfile>
